<svg width="24" height="16" viewBox="0 0 24 16" fill="none" xmlns="http://www.w3.org/2000/svg">
  <rect width="24" height="16" rx="2" fill="#D32F2F" />
  <polygon points="4,3 5,5.8 7.8,5.8 5.5,7.4 6.4,10 4,8.5 1.6,10 2.5,7.4 0.2,5.8 3,5.8" fill="#FFEB3B" />
  <polygon points="7.5,3.2 8.1,4 9.1,3.9 8.4,4.6 8.7,5.6 7.8,5.1 7,5.6 7.2,4.6 6.5,3.9 7.5,4" fill="#FFEB3B" />
  <polygon points="8.6,4.7 9.2,5.5 10.2,5.4 9.5,6.1 9.8,7.1 8.9,6.6 8.1,7.1 8.3,6.1 7.6,5.4 8.6,5.5" fill="#FFEB3B" />
  <polygon points="8.6,6.4 9.2,7.2 10.2,7.1 9.5,7.8 9.8,8.8 8.9,8.3 8.1,8.8 8.3,7.8 7.6,7.1 8.6,7.2" fill="#FFEB3B" />
  <polygon points="7.5,7.8 8.1,8.6 9.1,8.5 8.4,9.2 8.7,10.2 7.8,9.7 7,10.2 7.2,9.2 6.5,8.5 7.5,8.6" fill="#FFEB3B" />
</svg>


